<svg width="24" height="15" viewBox="0 0 24 15" fill="none" xmlns="http://www.w3.org/2000/svg">
<rect width="24" height="15" fill="#E3E3E3"/>
<g id="&#208;&#154;&#208;&#190;&#209;&#128;&#208;&#183;&#208;&#184;&#208;&#189;&#208;&#176;-006">
<rect width="1024" height="780" transform="translate(-366 -361)" fill="#F6F6FA"/>
<g id="Frame 277132152">
<g id="Frame 277132152_2">
<g id="Frame 277132230">
<g id="&#208;&#158;&#209;&#132;&#208;&#190;&#209;&#128;&#208;&#188;&#208;&#187;&#208;&#181;&#208;&#189;&#208;&#184;&#208;&#181;">
<g id="&#208;&#148;&#208;&#190;&#209;&#129;&#209;&#130;&#208;&#176;&#208;&#178;&#208;&#186;&#208;&#176;">
<rect x="-342" y="-361" width="638" height="362" rx="16" fill="white"/>
</g>
</g>
</g>
</g>
</g>
<rect id="Rectangle 1911" x="-366" y="-361" width="1024" height="780" fill="#05000A" fill-opacity="0.3"/>
<g id="&#208;&#144;&#208;&#178;&#209;&#130;&#208;&#190;&#209;&#128;&#208;&#184;&#208;&#183;&#208;&#176;&#209;&#134;&#208;&#184;&#209;&#143; 2.0" filter="url(#filter0_d_7_43)">
<g clip-path="url(#clip0_7_43)">
<rect x="-54" y="-181.5" width="400" height="408" rx="16" fill="white"/>
<g id="Frame 4343">
<g id="Frame 277132128">
<g id="Frame 277132129">
<g id="Frame 277132145">
<g id="Frame 995">
<g id="Frame 3849">
<g id="Frame 277132129_2">
<rect x="-4" y="-4.5" width="32" height="24" rx="4" fill="#F6F6FA"/>
<g id="maestro">
<path id="Vector" fill-rule="evenodd" clip-rule="evenodd" d="M14.8883 13.0017H8.76367V1.99487H14.8884L14.8883 13.0017Z" fill="#6C6BBD"/>
<path id="Vector_2" fill-rule="evenodd" clip-rule="evenodd" d="M9.15147 7.50012C9.15147 5.26738 10.1969 3.27845 11.8248 1.99668C10.5928 1.02523 9.06814 0.497658 7.49923 0.500008C3.63356 0.500008 0.5 3.63401 0.5 7.50012C0.5 11.3662 3.63356 14.5002 7.49923 14.5002C9.06814 14.5025 10.5929 13.9749 11.8249 13.0035C10.1971 11.7219 9.15147 9.73293 9.15147 7.50012Z" fill="#EB001B"/>
<path id="Vector_3" fill-rule="evenodd" clip-rule="evenodd" d="M23.1497 7.50012C23.1497 11.3662 20.0161 14.5002 16.1505 14.5002C14.5814 14.5024 13.0565 13.9749 11.8242 13.0035C13.4526 11.7217 14.498 9.73293 14.498 7.50012C14.498 5.26723 13.4526 3.27845 11.8242 1.99668C13.0564 1.02523 14.5813 0.497731 16.1504 0.500007C20.016 0.500007 23.1496 3.63401 23.1496 7.50012" fill="#0099DF"/>
</g>
</g>
</g>
</g>
</g>
</g>
</g>
</g>
</g>
</g>
</g>
<defs>
<filter id="filter0_d_7_43" x="-64" y="-187.5" width="420" height="428" filterUnits="userSpaceOnUse" color-interpolation-filters="sRGB">
<feFlood flood-opacity="0" result="BackgroundImageFix"/>
<feColorMatrix in="SourceAlpha" type="matrix" values="0 0 0 0 0 0 0 0 0 0 0 0 0 0 0 0 0 0 127 0" result="hardAlpha"/>
<feOffset dy="4"/>
<feGaussianBlur stdDeviation="5"/>
<feColorMatrix type="matrix" values="0 0 0 0 0 0 0 0 0 0 0 0 0 0 0 0 0 0 0.2 0"/>
<feBlend mode="normal" in2="BackgroundImageFix" result="effect1_dropShadow_7_43"/>
<feBlend mode="normal" in="SourceGraphic" in2="effect1_dropShadow_7_43" result="shape"/>
</filter>
<clipPath id="clip0_7_43">
<rect x="-54" y="-181.5" width="400" height="408" rx="16" fill="white"/>
</clipPath>
</defs>
</svg>
